<svg xmlns="http://www.w3.org/2000/svg" viewBox="0 0 32 32">
  <defs>
    <linearGradient id="a" x1="0%" y1="50.706%" y2="50.706%">
      <stop offset="0%" stop-color="#F50"/>
      <stop offset="40.988%" stop-color="#F50"/>
      <stop offset="49.434%" stop-color="#FF4530"/>
      <stop offset="57.237%" stop-color="#FF2000"/>
      <stop offset="100%" stop-color="#FF2000"/>
    </linearGradient>
    <linearGradient id="b" x1="50%" x2="96.767%" y1="100%" y2="100%">
      <stop offset="0%" stop-color="#FFF"/>
      <stop offset="100%" stop-color="#F4F4F4"/>
    </linearGradient>
  </defs>
  <g fill="none" fill-rule="evenodd">
    <path fill="url(#a)" d="M26.796 10.343l-.97-2.678.674-1.538a.533.533 0 0 0-.105-.584l-1.833-1.885a2.926 2.926 0 0 0-3.075-.728l-.512.181L18.298 0H8.454L5.812 3.149l-.499-.179a2.933 2.933 0 0 0-3.104.735L.344 5.625a.423.423 0 0 0-.083.466l.704 1.596L0 10.363l.625 2.413 2.844 10.997A5.602 5.602 0 0 0 5.6 26.912s3.453 2.476 6.86 4.726c.3.198.614.342.95.337.336.005.65-.14.949-.338 3.827-2.551 6.855-4.735 6.855-4.735a5.605 5.605 0 0 0 2.128-3.142l2.831-11.001.622-2.416z" transform="translate(3)"/>
    <path fill="url(#b)" d="M11.375 15.135l.372.157c.401.168 1.047.47 1.434.67l1.098.566c.387.2.415.573.062.83l-.937.68c-.353.257-.909.702-1.234.991l-1.182 1.048a.901.901 0 0 1-1.168.003 163.11 163.11 0 0 0-1.171-1.039 19.25 19.25 0 0 0-1.238-.982l-.934-.67c-.354-.255-.33-.63.056-.834l1.104-.584a21.5 21.5 0 0 1 1.43-.678l.372-.157c.401-.17.76-.308.799-.308h.338c.038 0 .397.138.799.307zm9.384-8.982l-.07.257c-.189.239-.586.697-.884 1.018l-2.734 2.956c-.297.321-.465.724-.295 1.13l.368.924c.17.406.187 1.077.024 1.528-.165.459-.45.864-.822 1.173l-.285.237c-.337.279-.933.352-1.325.162l-1.26-.607a6.511 6.511 0 0 1-1.3-.88l-1.191-1.09a.568.568 0 0 1-.03-.806l2.902-1.99c.36-.247.55-.704.346-1.093L13.17 7.164c-.204-.39-.286-.907-.182-1.15.105-.243.523-.57.93-.726l3.367-1.272c.406-.156.385-.318-.048-.36l-2.152-.162c-.433-.041-.75.023-1.168.141l-1.629.41c-.418.119-.507.571-.428 1.005l.672 3.704c.079.434.117.87.086.971-.032.1-.404.262-.828.36l-.557.128a4.222 4.222 0 0 1-1.542.01l-.674-.145c-.425-.092-.798-.25-.83-.35-.032-.1.007-.538.085-.971l.668-3.705c.078-.434-.01-.886-.43-1.004L6.883 3.64c-.418-.118-.735-.18-1.168-.14l-2.152.165c-.432.042-.454.203-.048.359l3.37 1.268c.407.156.825.483.93.726.105.242.023.76-.18 1.149l-1.03 1.909c-.204.39-.013.846.347 1.092l2.904 1.987a.568.568 0 0 1-.028.807l-1.19 1.09a6.522 6.522 0 0 1-1.3.883l-1.258.61c-.392.189-.989.116-1.325-.162l-.285-.236a2.76 2.76 0 0 1-.838-1.209c-.15-.414-.134-1.085.035-1.491l.368-.925c.17-.406 0-.809-.297-1.13L1 7.44a21.64 21.64 0 0 1-.884-1.017l-.072-.257L0 6.023c-.004-.165.054-.692.12-.834.066-.142.319-.557.562-.922l.586-.88c.243-.366.664-.947.934-1.292L3.061 1c.27-.345.501-.625.536-.623.001-.002.352.064.778.147l1.3.254L6.722.98c.149.03.608-.059 1.022-.195l.935-.308C9.091.342 9.718.163 10.071.08l.327.005.327-.005c.353.083.98.261 1.394.397l.936.307c.413.135.873.223 1.021.194l1.045-.205 1.3-.254c.427-.084.777-.15.802-.149.012-.002.243.278.514.623l.86 1.093c.27.344.692.924.936 1.29l.586.88c.244.364.624 1.029.648 1.18.024.15.04.41.037.575l-.045.143z" transform="translate(5.966 4.864)"/>
  </g>
</svg>