<svg xmlns="http://www.w3.org/2000/svg" xmlns:xlink="http://www.w3.org/1999/xlink" viewBox="0 0 173 53">
  <defs>
    <linearGradient id="logo-dark-a" x1="0%" y1="50.706%" y2="50.706%">
      <stop offset="0%" stop-color="#F50"/>
      <stop offset="40.988%" stop-color="#F50"/>
      <stop offset="58.198%" stop-color="#FF2000"/>
      <stop offset="100%" stop-color="#FF2000"/>
    </linearGradient>
    <linearGradient id="logo-dark-b" x1="2.148%" y1="50.706%" y2="50.706%">
      <stop offset="0%" stop-color="#FF452A"/>
      <stop offset="100%" stop-color="#FF2000"/>
    </linearGradient>
    <path id="logo-dark-c" d="M35.1074079,5.22386868 L30.5086769,2.24609103e-05 L22.4328566,2.24609103e-05 L14.3570363,2.24609103e-05 L9.75830531,5.22386868 C9.75830531,5.22386868 5.72039515,4.10082316 3.81360425,6.01000054 C3.81360425,6.01000054 9.19748445,5.52338492 11.0481933,8.53685295 C11.0481933,8.53685295 16.0394989,9.49144164 16.7124839,9.49144164 C17.3854689,9.49144164 18.8436032,8.92991888 20.1895732,8.48070068 C21.5355433,8.03148247 22.4328566,8.02822564 22.4328566,8.02822564 C22.4328566,8.02822564 23.33017,8.03148247 24.67614,8.48070068 C26.0221101,8.92991888 27.4802443,9.49144164 28.1532293,9.49144164 C28.8262144,9.49144164 33.81752,8.53685295 33.81752,8.53685295 C35.6682288,5.52338492 41.052109,6.01000054 41.052109,6.01000054 C39.1453181,4.10082316 35.1074079,5.22386868 35.1074079,5.22386868"/>
  </defs>
  <g fill="none" fill-rule="evenodd" transform="translate(-3.6)">
    <path fill="#343546" fill-rule="nonzero" d="M.0870597885 18.1880327L.0870597885.0816030336 1.82316556.0816030336C3.23758737.0816030336 4.3842028 1.22556096 4.3842028 2.63670457L4.3842028 10.687332C7.16647166 8.21079139 9.53252509 7.21942695 12.6860131 7.15582999 18.7342606 7.03237706 23.9838245 11.5140925 24.4825331 17.5296171 25.0787336 24.7160739 19.8404188 30.1255569 13.0159857 30.1255569 5.5241081 30.1255569.0870597885 25.4904605.0870597885 18.1880327zM4.31295872 19.6096119C4.73667352 23.3506097 8.31762602 26.440674 12.0935623 26.5005299 17.0131536 26.5753499 20.3653751 23.3767967 20.3653751 18.6444344 20.3653751 13.9120721 17.0881474 10.7883389 12.3072946 10.7883389 7.19646917 10.7771159 3.731757 14.4807038 4.31295872 19.6096119zM31.6519375 7.60849073L31.6519375 10.8332309C34.3554629 7.8404326 35.9565799 7.03611806 39.121317 7.03611806 40.0418977 7.037108 40.9609509 7.11091219 41.8698386 7.25683693L41.8698386 11.5402795C40.8999788 11.2742966 39.8984169 11.1408967 38.892586 11.1437337 36.6015263 11.1437337 34.6779361 11.8919333 33.2680532 13.3060305 32.030656 14.5443008 31.6631866 15.5132192 31.6631866 17.4585381L31.6631866 29.3848393 27.2085566 29.3848393 27.2085566 7.60849073 31.6519375 7.60849073zM42.9272508 14.8099116C43.1559818 12.6887658 43.5684475 11.5402795 44.4833715 10.4366851 46.3169692 8.1920864 49.6166951 7.03611806 54.2888069 7.03611806 58.0009985 7.03611806 60.7045239 7.61223173 62.5831179 8.84676102 64.1429883 9.86057144 64.784185 11.3644526 64.784185 14.0130791L64.784185 23.6835585C64.784185 25.8047043 65.3353892 26.5529039 66.8465137 26.5117529 67.1841048 26.49987 67.5208122 26.4698988 67.8551799 26.421969L67.8551799 29.3362063C67.1039564 29.5923387 66.3126517 29.7114562 65.5191239 29.6878601 62.725606 29.6878601 61.4432126 28.8498766 60.5732848 26.418228 57.8247632 28.9359195 54.9824993 29.9946219 50.9065879 29.9946219 45.4545408 29.9946219 42.1098187 27.5218223 42.1098187 23.5002496 42.0859312 21.2069544 43.4381685 19.1214412 45.5445334 18.2029967 47.1943963 17.4959481 48.2030625 17.2752292 52.9201706 16.7888995 56.9510857 16.3923537 57.6410284 16.3025698 58.7846834 15.947175 60.0220806 15.5506292 60.5732848 14.8884726 60.5732848 13.7848782 60.5732848 11.4430135 58.6046984 10.3843111 54.480041 10.3843111 50.580365 10.3843111 48.570532 11.1549567 47.7643489 13.1227216 47.3650469 14.1289633 46.39303 14.7922523 45.308303 14.7986886L42.9272508 14.8099116zM60.5507867 18.5209815C57.724667 19.3410707 54.8226263 19.8737584 51.8890063 20.1109056 47.9030874 20.5074514 46.6656902 21.2593919 46.6656902 23.2458618 46.6656902 25.4530505 48.4992879 26.6127599 52.1177373 26.6127599 55.0949899 26.6127599 57.3410533 25.8645603 58.94592 24.4055711 60.2283135 23.2121928 60.5507867 22.3742093 60.5507867 20.2904735L60.5507867 18.5209815zM78.6092865 29.3810983L77.4618818 29.3810983C76.4510807 29.3874643 75.5264324 28.8141724 75.0845793 27.9071451L65.4741277 7.60849073 68.1439059 7.60849073C69.699645 7.59609712 71.1159474 8.50142758 71.7548559 9.91668641L78.1668232 24.5065781 84.7925228 9.86057144C85.4408701 8.467609 86.8453829 7.58121846 88.3847244 7.59352674L90.8107728 7.59340018 80.9753399 27.9295911C80.5288844 28.8242257 79.6109737 29.387338 78.6092865 29.3810983zM93.8217727 19.7555108C94.2792347 23.9529104 97.5714612 26.5566449 102.479803 26.5566449 105.265822 26.5566449 107.354398 25.7298844 108.648041 24.0801043 109.402567 23.1340478 110.548467 22.5830867 111.760282 22.5837052L114.343818 22.5837052C112.094005 27.5293043 108.066839 29.9609529 102.063588 29.9609529 94.564211 29.9609529 89.5096309 25.4118996 89.5096309 18.6107654 89.5096309 11.8096313 94.6879507 7.03985905 102.15733 7.03985905 107.560631 7.03985905 111.90652 9.46776667 113.657625 13.5342313 114.43756 15.4047303 114.756284 17.0657333 114.756284 19.7592518L93.8217727 19.7555108zM110.22291 16.3886127C109.214244 12.5466079 106.236991 10.3805701 102.112334 10.3805701 97.9876766 10.3805701 95.0104239 12.5466079 93.9567614 16.3886127L110.22291 16.3886127z" transform="translate(61.2 10.386)"/>
    <g transform="translate(4.147)">
      <path fill="url(#logo-dark-a)" d="M43.2953924,12.6359691 L44.5291983,9.60374619 C44.5291983,9.60374619 42.9588999,7.91917792 41.052109,6.01000054 C39.1453181,4.10082316 35.1074079,5.22386868 35.1074079,5.22386868 L30.5086769,2.24609103e-05 L22.4328566,2.24609103e-05 L14.3570363,2.24609103e-05 L9.75830531,5.22386868 C9.75830531,5.22386868 5.72039515,4.10082316 3.81360425,6.01000054 C1.90681334,7.91917792 0.336514946,9.60374619 0.336514946,9.60374619 L1.57032083,12.6359691 L2.24328342e-05,17.1281512 C2.24328342e-05,17.1281512 4.61838217,34.6426075 5.1595743,36.7814477 C6.22513392,40.9928684 6.95420103,42.6212844 9.98263365,44.7550709 C13.0110663,46.8888573 18.5071106,50.5949075 19.404424,51.1564303 C20.3017374,51.7179531 21.4233791,52.6744509 22.4328566,52.6744509 C23.4423342,52.6744509 24.5639759,51.7179531 25.4612892,51.1564303 C26.3586026,50.5949075 31.854647,46.8888573 34.8830796,44.7550709 C37.9115122,42.6212844 38.6405793,40.9928684 39.706139,36.7814477 C40.2472189,34.6426075 44.8656908,17.1281512 44.8656908,17.1281512 L43.2953924,12.6359691 Z"/>
      <path fill="#FFF" d="M33.81752,8.53685295 C33.81752,8.53685295 39.7326097,15.6962681 39.7326097,17.2264176 C39.7326097,18.7565672 38.9885126,19.1604143 38.2403776,19.9558675 C37.4922425,20.7513206 34.2247881,24.2253496 33.8051819,24.6714233 C33.3855758,25.1176093 32.5120412,25.7940196 33.0258653,27.0115132 C33.5396893,28.2290069 34.2976948,29.7782482 33.454781,31.3496134 C32.6117551,32.9209787 31.1676414,33.9697909 30.242287,33.7963927 C29.3169326,33.6228822 27.1437518,32.4857986 26.3445821,31.96639 C25.5454124,31.4469815 23.0125211,29.3554215 23.0125211,28.5551393 C23.0125211,27.7549694 25.6307693,26.3181449 26.1144212,25.9916756 C26.5982974,25.6653186 28.8045667,24.4017801 28.8497688,23.9058432 C28.8948588,23.4097939 28.8776977,23.2643596 28.2265847,22.0388923 C27.5754717,20.8133127 26.4029075,19.1779338 26.5980731,18.089815 C26.7932388,17.0018085 28.6843267,16.4360182 30.033886,15.9257063 C31.383221,15.4155067 33.981504,14.4518214 34.3059949,14.3020071 C34.6307102,14.1520805 34.5468114,14.0093415 33.5634681,13.9160164 C32.5803492,13.8226913 29.7901533,13.4518617 28.5322321,13.8029257 C27.2743109,14.1539897 25.1252454,14.6881102 24.9511666,14.9713422 C24.7770878,15.2545743 24.623535,15.2641202 24.8023247,16.2411698 C24.9810023,17.2182194 25.9014214,21.9064852 25.9907041,22.7392235 C26.080099,23.5719617 26.2548507,24.1224786 25.3580982,24.3277714 C24.4612335,24.5330641 22.9516159,24.8895187 22.4328566,24.8895187 C21.9140973,24.8895187 20.4043676,24.5330641 19.507615,24.3277714 C18.6107503,24.1224786 18.7855021,23.5719617 18.874897,22.7392235 C18.9642918,21.9064852 19.8845988,17.2182194 20.0633885,16.2411698 C20.242066,15.2641202 20.0885133,15.2545743 19.9145467,14.9713422 C19.7404679,14.6881102 17.5912902,14.1539897 16.333369,13.8029257 C15.0754478,13.4518617 12.2853641,13.8226913 11.302133,13.9160164 C10.3189018,14.0093415 10.235003,14.1520805 10.5596061,14.3020071 C10.8842093,14.4518214 13.4824923,15.4155067 14.8318273,15.9257063 C16.1812744,16.4360182 18.0724745,17.0018085 18.2676401,18.089815 C18.4628058,19.1779338 17.2901294,20.8133127 16.6391285,22.0388923 C15.9880155,23.2643596 15.9707422,23.4097939 16.0159444,23.9058432 C16.0610344,24.4017801 18.2674158,25.6653186 18.7511799,25.9916756 C19.2349439,26.3181449 21.85308,27.7549694 21.85308,28.5551393 C21.85308,29.3554215 19.3203009,31.4469815 18.5211312,31.96639 C17.7219614,32.4857986 15.5487806,33.6228822 14.6234262,33.7963927 C13.6980718,33.9697909 12.2539581,32.9209787 11.4109322,31.3496134 C10.5680185,29.7782482 11.3260239,28.2290069 11.8397358,27.0115132 C12.3535599,25.7940196 11.4801375,25.1176093 11.0604192,24.6714233 C10.6409252,24.2253496 7.37335854,20.7513206 6.62522352,19.9558675 C5.8770885,19.1604143 5.13310355,18.7565672 5.13310355,17.2264176 C5.13310355,15.6962681 11.0481933,8.53685295 11.0481933,8.53685295 C11.0481933,8.53685295 16.0394989,9.49144164 16.7124839,9.49144164 C17.3854689,9.49144164 18.8436032,8.92991888 20.1895732,8.48070068 C21.5355433,8.03148247 22.4328566,8.02822564 22.4328566,8.02822564 C22.4328566,8.02822564 23.33017,8.03148247 24.67614,8.48070068 C26.0221101,8.92991888 27.4802443,9.49144164 28.1532293,9.49144164 C28.8262144,9.49144164 33.81752,8.53685295 33.81752,8.53685295 Z M29.3831992,35.9230366 C29.7493031,36.1525871 29.5259842,36.5852966 29.1925201,36.8213607 C28.8589439,37.0574249 24.3767514,40.5325769 23.9417788,40.9166585 C23.506694,41.3008524 22.8674704,41.9352608 22.4328342,41.9352608 C21.998198,41.9352608 21.3588623,41.3008524 20.9238896,40.9166585 C20.4888048,40.5325769 16.0067245,37.0574249 15.6731483,36.8213607 C15.339572,36.5852966 15.1163653,36.1525871 15.4824692,35.9230366 C15.8486852,35.6935984 16.9942179,35.1144438 18.5749475,34.2954068 C20.1554529,33.476482 22.1253922,32.7801937 22.4328342,32.7801937 C22.7402762,32.7801937 24.7101034,33.476482 26.290833,34.2954068 C27.8714505,35.1144438 29.0169832,35.6935984 29.3831992,35.9230366 Z"/>
      <use fill="url(#logo-dark-b)" xlink:href="#logo-dark-c"/>
    </g>
  </g>
</svg>
